<mxfile host="app.diagrams.net" agent="Mozilla/5.0 (Windows NT 10.0; Win64; x64) AppleWebKit/537.36 (KHTML, like Gecko) Chrome/138.0.0.0 YaBrowser/25.8.0.0 Safari/537.36" version="28.2.3">
  <diagram id="R2lEEEUBdFMjLlhIrx00" name="Page-1">
    <mxGraphModel dx="2079" dy="1784" grid="1" gridSize="10" guides="1" tooltips="1" connect="1" arrows="1" fold="1" page="1" pageScale="1" pageWidth="850" pageHeight="1100" math="0" shadow="1" extFonts="Permanent Marker^https://fonts.googleapis.com/css?family=Permanent+Marker">
      <root>
        <mxCell id="0" />
        <mxCell id="1" parent="0" />
        <mxCell id="IvLmCjMSNPzF_hTHH6rZ-9" value="user" style="shape=table;startSize=30;container=1;collapsible=1;childLayout=tableLayout;fixedRows=1;rowLines=0;fontStyle=1;align=center;resizeLast=1;html=1;" parent="1" vertex="1">
          <mxGeometry x="-100" y="-270" width="200" height="250" as="geometry" />
        </mxCell>
        <mxCell id="IvLmCjMSNPzF_hTHH6rZ-10" value="" style="shape=tableRow;horizontal=0;startSize=0;swimlaneHead=0;swimlaneBody=0;fillColor=none;collapsible=0;dropTarget=0;points=[[0,0.5],[1,0.5]];portConstraint=eastwest;top=0;left=0;right=0;bottom=1;" parent="IvLmCjMSNPzF_hTHH6rZ-9" vertex="1">
          <mxGeometry y="30" width="200" height="30" as="geometry" />
        </mxCell>
        <mxCell id="IvLmCjMSNPzF_hTHH6rZ-11" value="PK" style="shape=partialRectangle;connectable=0;fillColor=none;top=0;left=0;bottom=0;right=0;fontStyle=1;overflow=hidden;whiteSpace=wrap;html=1;" parent="IvLmCjMSNPzF_hTHH6rZ-10" vertex="1">
          <mxGeometry width="40" height="30" as="geometry">
            <mxRectangle width="40" height="30" as="alternateBounds" />
          </mxGeometry>
        </mxCell>
        <mxCell id="IvLmCjMSNPzF_hTHH6rZ-12" value="user_id" style="shape=partialRectangle;connectable=0;fillColor=none;top=0;left=0;bottom=0;right=0;align=left;spacingLeft=6;fontStyle=5;overflow=hidden;whiteSpace=wrap;html=1;" parent="IvLmCjMSNPzF_hTHH6rZ-10" vertex="1">
          <mxGeometry x="40" width="160" height="30" as="geometry">
            <mxRectangle width="160" height="30" as="alternateBounds" />
          </mxGeometry>
        </mxCell>
        <mxCell id="IvLmCjMSNPzF_hTHH6rZ-13" value="" style="shape=tableRow;horizontal=0;startSize=0;swimlaneHead=0;swimlaneBody=0;fillColor=none;collapsible=0;dropTarget=0;points=[[0,0.5],[1,0.5]];portConstraint=eastwest;top=0;left=0;right=0;bottom=0;" parent="IvLmCjMSNPzF_hTHH6rZ-9" vertex="1">
          <mxGeometry y="60" width="200" height="30" as="geometry" />
        </mxCell>
        <mxCell id="IvLmCjMSNPzF_hTHH6rZ-14" value="" style="shape=partialRectangle;connectable=0;fillColor=none;top=0;left=0;bottom=0;right=0;editable=1;overflow=hidden;whiteSpace=wrap;html=1;" parent="IvLmCjMSNPzF_hTHH6rZ-13" vertex="1">
          <mxGeometry width="40" height="30" as="geometry">
            <mxRectangle width="40" height="30" as="alternateBounds" />
          </mxGeometry>
        </mxCell>
        <mxCell id="IvLmCjMSNPzF_hTHH6rZ-15" value="first_name (varchar 50)" style="shape=partialRectangle;connectable=0;fillColor=none;top=0;left=0;bottom=0;right=0;align=left;spacingLeft=6;overflow=hidden;whiteSpace=wrap;html=1;" parent="IvLmCjMSNPzF_hTHH6rZ-13" vertex="1">
          <mxGeometry x="40" width="160" height="30" as="geometry">
            <mxRectangle width="160" height="30" as="alternateBounds" />
          </mxGeometry>
        </mxCell>
        <mxCell id="IvLmCjMSNPzF_hTHH6rZ-16" value="" style="shape=tableRow;horizontal=0;startSize=0;swimlaneHead=0;swimlaneBody=0;fillColor=none;collapsible=0;dropTarget=0;points=[[0,0.5],[1,0.5]];portConstraint=eastwest;top=0;left=0;right=0;bottom=0;" parent="IvLmCjMSNPzF_hTHH6rZ-9" vertex="1">
          <mxGeometry y="90" width="200" height="30" as="geometry" />
        </mxCell>
        <mxCell id="IvLmCjMSNPzF_hTHH6rZ-17" value="" style="shape=partialRectangle;connectable=0;fillColor=none;top=0;left=0;bottom=0;right=0;editable=1;overflow=hidden;whiteSpace=wrap;html=1;" parent="IvLmCjMSNPzF_hTHH6rZ-16" vertex="1">
          <mxGeometry width="40" height="30" as="geometry">
            <mxRectangle width="40" height="30" as="alternateBounds" />
          </mxGeometry>
        </mxCell>
        <mxCell id="IvLmCjMSNPzF_hTHH6rZ-18" value="last_name (varchar 50)" style="shape=partialRectangle;connectable=0;fillColor=none;top=0;left=0;bottom=0;right=0;align=left;spacingLeft=6;overflow=hidden;whiteSpace=wrap;html=1;" parent="IvLmCjMSNPzF_hTHH6rZ-16" vertex="1">
          <mxGeometry x="40" width="160" height="30" as="geometry">
            <mxRectangle width="160" height="30" as="alternateBounds" />
          </mxGeometry>
        </mxCell>
        <mxCell id="IvLmCjMSNPzF_hTHH6rZ-19" value="" style="shape=tableRow;horizontal=0;startSize=0;swimlaneHead=0;swimlaneBody=0;fillColor=none;collapsible=0;dropTarget=0;points=[[0,0.5],[1,0.5]];portConstraint=eastwest;top=0;left=0;right=0;bottom=0;" parent="IvLmCjMSNPzF_hTHH6rZ-9" vertex="1">
          <mxGeometry y="120" width="200" height="30" as="geometry" />
        </mxCell>
        <mxCell id="IvLmCjMSNPzF_hTHH6rZ-20" value="" style="shape=partialRectangle;connectable=0;fillColor=none;top=0;left=0;bottom=0;right=0;editable=1;overflow=hidden;whiteSpace=wrap;html=1;" parent="IvLmCjMSNPzF_hTHH6rZ-19" vertex="1">
          <mxGeometry width="40" height="30" as="geometry">
            <mxRectangle width="40" height="30" as="alternateBounds" />
          </mxGeometry>
        </mxCell>
        <mxCell id="IvLmCjMSNPzF_hTHH6rZ-21" value="phone_namber(int)" style="shape=partialRectangle;connectable=0;fillColor=none;top=0;left=0;bottom=0;right=0;align=left;spacingLeft=6;overflow=hidden;whiteSpace=wrap;html=1;" parent="IvLmCjMSNPzF_hTHH6rZ-19" vertex="1">
          <mxGeometry x="40" width="160" height="30" as="geometry">
            <mxRectangle width="160" height="30" as="alternateBounds" />
          </mxGeometry>
        </mxCell>
        <mxCell id="IvLmCjMSNPzF_hTHH6rZ-24" value="role (varchar 50)" style="text;html=1;align=center;verticalAlign=middle;resizable=0;points=[];autosize=1;strokeColor=none;fillColor=none;" parent="1" vertex="1">
          <mxGeometry x="-60" y="-122" width="110" height="30" as="geometry" />
        </mxCell>
        <mxCell id="IvLmCjMSNPzF_hTHH6rZ-32" value="permissins (varchar 50)" style="text;html=1;align=center;verticalAlign=middle;resizable=0;points=[];autosize=1;strokeColor=none;fillColor=none;" parent="1" vertex="1">
          <mxGeometry x="-60" y="-100" width="150" height="30" as="geometry" />
        </mxCell>
        <mxCell id="IvLmCjMSNPzF_hTHH6rZ-38" value="" style="endArrow=none;html=1;rounded=0;" parent="1" edge="1">
          <mxGeometry width="50" height="50" relative="1" as="geometry">
            <mxPoint x="-60" y="-122" as="sourcePoint" />
            <mxPoint x="-60" y="-122" as="targetPoint" />
            <Array as="points">
              <mxPoint x="-60" y="-20" />
            </Array>
          </mxGeometry>
        </mxCell>
        <mxCell id="IvLmCjMSNPzF_hTHH6rZ-40" value="created_at (date)" style="text;html=1;align=center;verticalAlign=middle;resizable=0;points=[];autosize=1;strokeColor=none;fillColor=none;" parent="1" vertex="1">
          <mxGeometry x="-70" y="-70" width="110" height="30" as="geometry" />
        </mxCell>
        <mxCell id="IvLmCjMSNPzF_hTHH6rZ-45" value="Drone" style="shape=table;startSize=30;container=1;collapsible=1;childLayout=tableLayout;fixedRows=1;rowLines=0;fontStyle=1;align=center;resizeLast=1;html=1;" parent="1" vertex="1">
          <mxGeometry x="-100" y="40" width="190" height="250" as="geometry" />
        </mxCell>
        <mxCell id="IvLmCjMSNPzF_hTHH6rZ-46" value="" style="shape=tableRow;horizontal=0;startSize=0;swimlaneHead=0;swimlaneBody=0;fillColor=none;collapsible=0;dropTarget=0;points=[[0,0.5],[1,0.5]];portConstraint=eastwest;top=0;left=0;right=0;bottom=1;" parent="IvLmCjMSNPzF_hTHH6rZ-45" vertex="1">
          <mxGeometry y="30" width="190" height="30" as="geometry" />
        </mxCell>
        <mxCell id="IvLmCjMSNPzF_hTHH6rZ-47" value="PK" style="shape=partialRectangle;connectable=0;fillColor=none;top=0;left=0;bottom=0;right=0;fontStyle=1;overflow=hidden;whiteSpace=wrap;html=1;" parent="IvLmCjMSNPzF_hTHH6rZ-46" vertex="1">
          <mxGeometry width="29.999999999999773" height="30" as="geometry">
            <mxRectangle width="29.999999999999773" height="30" as="alternateBounds" />
          </mxGeometry>
        </mxCell>
        <mxCell id="IvLmCjMSNPzF_hTHH6rZ-48" value="drone_id" style="shape=partialRectangle;connectable=0;fillColor=none;top=0;left=0;bottom=0;right=0;align=left;spacingLeft=6;fontStyle=5;overflow=hidden;whiteSpace=wrap;html=1;" parent="IvLmCjMSNPzF_hTHH6rZ-46" vertex="1">
          <mxGeometry x="29.999999999999773" width="160.00000000000023" height="30" as="geometry">
            <mxRectangle width="160.00000000000023" height="30" as="alternateBounds" />
          </mxGeometry>
        </mxCell>
        <mxCell id="IvLmCjMSNPzF_hTHH6rZ-49" value="" style="shape=tableRow;horizontal=0;startSize=0;swimlaneHead=0;swimlaneBody=0;fillColor=none;collapsible=0;dropTarget=0;points=[[0,0.5],[1,0.5]];portConstraint=eastwest;top=0;left=0;right=0;bottom=0;" parent="IvLmCjMSNPzF_hTHH6rZ-45" vertex="1">
          <mxGeometry y="60" width="190" height="30" as="geometry" />
        </mxCell>
        <mxCell id="IvLmCjMSNPzF_hTHH6rZ-50" value="" style="shape=partialRectangle;connectable=0;fillColor=none;top=0;left=0;bottom=0;right=0;editable=1;overflow=hidden;whiteSpace=wrap;html=1;" parent="IvLmCjMSNPzF_hTHH6rZ-49" vertex="1">
          <mxGeometry width="29.999999999999773" height="30" as="geometry">
            <mxRectangle width="29.999999999999773" height="30" as="alternateBounds" />
          </mxGeometry>
        </mxCell>
        <mxCell id="IvLmCjMSNPzF_hTHH6rZ-51" value="drone_model (varchar 50)" style="shape=partialRectangle;connectable=0;fillColor=none;top=0;left=0;bottom=0;right=0;align=left;spacingLeft=6;overflow=hidden;whiteSpace=wrap;html=1;" parent="IvLmCjMSNPzF_hTHH6rZ-49" vertex="1">
          <mxGeometry x="29.999999999999773" width="160.00000000000023" height="30" as="geometry">
            <mxRectangle width="160.00000000000023" height="30" as="alternateBounds" />
          </mxGeometry>
        </mxCell>
        <mxCell id="IvLmCjMSNPzF_hTHH6rZ-52" value="" style="shape=tableRow;horizontal=0;startSize=0;swimlaneHead=0;swimlaneBody=0;fillColor=none;collapsible=0;dropTarget=0;points=[[0,0.5],[1,0.5]];portConstraint=eastwest;top=0;left=0;right=0;bottom=0;" parent="IvLmCjMSNPzF_hTHH6rZ-45" vertex="1">
          <mxGeometry y="90" width="190" height="30" as="geometry" />
        </mxCell>
        <mxCell id="IvLmCjMSNPzF_hTHH6rZ-53" value="" style="shape=partialRectangle;connectable=0;fillColor=none;top=0;left=0;bottom=0;right=0;editable=1;overflow=hidden;whiteSpace=wrap;html=1;" parent="IvLmCjMSNPzF_hTHH6rZ-52" vertex="1">
          <mxGeometry width="29.999999999999773" height="30" as="geometry">
            <mxRectangle width="29.999999999999773" height="30" as="alternateBounds" />
          </mxGeometry>
        </mxCell>
        <mxCell id="IvLmCjMSNPzF_hTHH6rZ-54" value="drone_type (varchar 50)" style="shape=partialRectangle;connectable=0;fillColor=none;top=0;left=0;bottom=0;right=0;align=left;spacingLeft=6;overflow=hidden;whiteSpace=wrap;html=1;" parent="IvLmCjMSNPzF_hTHH6rZ-52" vertex="1">
          <mxGeometry x="29.999999999999773" width="160.00000000000023" height="30" as="geometry">
            <mxRectangle width="160.00000000000023" height="30" as="alternateBounds" />
          </mxGeometry>
        </mxCell>
        <mxCell id="IvLmCjMSNPzF_hTHH6rZ-55" value="" style="shape=tableRow;horizontal=0;startSize=0;swimlaneHead=0;swimlaneBody=0;fillColor=none;collapsible=0;dropTarget=0;points=[[0,0.5],[1,0.5]];portConstraint=eastwest;top=0;left=0;right=0;bottom=0;" parent="IvLmCjMSNPzF_hTHH6rZ-45" vertex="1">
          <mxGeometry y="120" width="190" height="30" as="geometry" />
        </mxCell>
        <mxCell id="IvLmCjMSNPzF_hTHH6rZ-56" value="" style="shape=partialRectangle;connectable=0;fillColor=none;top=0;left=0;bottom=0;right=0;editable=1;overflow=hidden;whiteSpace=wrap;html=1;" parent="IvLmCjMSNPzF_hTHH6rZ-55" vertex="1">
          <mxGeometry width="29.999999999999773" height="30" as="geometry">
            <mxRectangle width="29.999999999999773" height="30" as="alternateBounds" />
          </mxGeometry>
        </mxCell>
        <mxCell id="IvLmCjMSNPzF_hTHH6rZ-57" value="registration_number(varchar 50)" style="shape=partialRectangle;connectable=0;fillColor=none;top=0;left=0;bottom=0;right=0;align=left;spacingLeft=6;overflow=hidden;whiteSpace=wrap;html=1;" parent="IvLmCjMSNPzF_hTHH6rZ-55" vertex="1">
          <mxGeometry x="29.999999999999773" width="160.00000000000023" height="30" as="geometry">
            <mxRectangle width="160.00000000000023" height="30" as="alternateBounds" />
          </mxGeometry>
        </mxCell>
        <mxCell id="IvLmCjMSNPzF_hTHH6rZ-60" value="user_id (int)" style="text;html=1;align=center;verticalAlign=middle;resizable=0;points=[];autosize=1;strokeColor=none;fillColor=none;" parent="1" vertex="1">
          <mxGeometry x="-75" y="188" width="90" height="30" as="geometry" />
        </mxCell>
        <mxCell id="IvLmCjMSNPzF_hTHH6rZ-62" value="" style="endArrow=none;html=1;rounded=0;entryX=0.161;entryY=0.983;entryDx=0;entryDy=0;entryPerimeter=0;" parent="1" target="IvLmCjMSNPzF_hTHH6rZ-55" edge="1">
          <mxGeometry width="50" height="50" relative="1" as="geometry">
            <mxPoint x="-69" y="285" as="sourcePoint" />
            <mxPoint x="-58" y="145" as="targetPoint" />
          </mxGeometry>
        </mxCell>
        <mxCell id="IvLmCjMSNPzF_hTHH6rZ-64" value="serial_number(varchar)" style="text;html=1;align=center;verticalAlign=middle;resizable=0;points=[];autosize=1;strokeColor=none;fillColor=none;" parent="1" vertex="1">
          <mxGeometry x="-75" y="210" width="150" height="30" as="geometry" />
        </mxCell>
        <mxCell id="IvLmCjMSNPzF_hTHH6rZ-65" value="status (text)" style="text;html=1;align=center;verticalAlign=middle;resizable=0;points=[];autosize=1;strokeColor=none;fillColor=none;" parent="1" vertex="1">
          <mxGeometry x="-70" y="232" width="90" height="30" as="geometry" />
        </mxCell>
        <mxCell id="IvLmCjMSNPzF_hTHH6rZ-109" value="Flight" style="shape=table;startSize=30;container=1;collapsible=1;childLayout=tableLayout;fixedRows=1;rowLines=0;fontStyle=1;align=center;resizeLast=1;html=1;" parent="1" vertex="1">
          <mxGeometry x="180" y="-13" width="190" height="403" as="geometry" />
        </mxCell>
        <mxCell id="IvLmCjMSNPzF_hTHH6rZ-110" value="" style="shape=tableRow;horizontal=0;startSize=0;swimlaneHead=0;swimlaneBody=0;fillColor=none;collapsible=0;dropTarget=0;points=[[0,0.5],[1,0.5]];portConstraint=eastwest;top=0;left=0;right=0;bottom=1;" parent="IvLmCjMSNPzF_hTHH6rZ-109" vertex="1">
          <mxGeometry y="30" width="190" height="30" as="geometry" />
        </mxCell>
        <mxCell id="IvLmCjMSNPzF_hTHH6rZ-111" value="PK" style="shape=partialRectangle;connectable=0;fillColor=none;top=0;left=0;bottom=0;right=0;fontStyle=1;overflow=hidden;whiteSpace=wrap;html=1;" parent="IvLmCjMSNPzF_hTHH6rZ-110" vertex="1">
          <mxGeometry width="40" height="30" as="geometry">
            <mxRectangle width="40" height="30" as="alternateBounds" />
          </mxGeometry>
        </mxCell>
        <mxCell id="IvLmCjMSNPzF_hTHH6rZ-112" value="flight_id" style="shape=partialRectangle;connectable=0;fillColor=none;top=0;left=0;bottom=0;right=0;align=left;spacingLeft=6;fontStyle=5;overflow=hidden;whiteSpace=wrap;html=1;" parent="IvLmCjMSNPzF_hTHH6rZ-110" vertex="1">
          <mxGeometry x="40" width="150" height="30" as="geometry">
            <mxRectangle width="150" height="30" as="alternateBounds" />
          </mxGeometry>
        </mxCell>
        <mxCell id="IvLmCjMSNPzF_hTHH6rZ-113" value="" style="shape=tableRow;horizontal=0;startSize=0;swimlaneHead=0;swimlaneBody=0;fillColor=none;collapsible=0;dropTarget=0;points=[[0,0.5],[1,0.5]];portConstraint=eastwest;top=0;left=0;right=0;bottom=0;" parent="IvLmCjMSNPzF_hTHH6rZ-109" vertex="1">
          <mxGeometry y="60" width="190" height="30" as="geometry" />
        </mxCell>
        <mxCell id="IvLmCjMSNPzF_hTHH6rZ-114" value="FK" style="shape=partialRectangle;connectable=0;fillColor=none;top=0;left=0;bottom=0;right=0;editable=1;overflow=hidden;whiteSpace=wrap;html=1;" parent="IvLmCjMSNPzF_hTHH6rZ-113" vertex="1">
          <mxGeometry width="40" height="30" as="geometry">
            <mxRectangle width="40" height="30" as="alternateBounds" />
          </mxGeometry>
        </mxCell>
        <mxCell id="IvLmCjMSNPzF_hTHH6rZ-115" value="drone_id (int)" style="shape=partialRectangle;connectable=0;fillColor=none;top=0;left=0;bottom=0;right=0;align=left;spacingLeft=6;overflow=hidden;whiteSpace=wrap;html=1;" parent="IvLmCjMSNPzF_hTHH6rZ-113" vertex="1">
          <mxGeometry x="40" width="150" height="30" as="geometry">
            <mxRectangle width="150" height="30" as="alternateBounds" />
          </mxGeometry>
        </mxCell>
        <mxCell id="ab3vpEOWy1NpWrEdWXUi-40" value="" style="shape=tableRow;horizontal=0;startSize=0;swimlaneHead=0;swimlaneBody=0;fillColor=none;collapsible=0;dropTarget=0;points=[[0,0.5],[1,0.5]];portConstraint=eastwest;top=0;left=0;right=0;bottom=0;" vertex="1" parent="IvLmCjMSNPzF_hTHH6rZ-109">
          <mxGeometry y="90" width="190" height="30" as="geometry" />
        </mxCell>
        <mxCell id="ab3vpEOWy1NpWrEdWXUi-41" value="FK" style="shape=partialRectangle;connectable=0;fillColor=none;top=0;left=0;bottom=0;right=0;editable=1;overflow=hidden;whiteSpace=wrap;html=1;" vertex="1" parent="ab3vpEOWy1NpWrEdWXUi-40">
          <mxGeometry width="40" height="30" as="geometry">
            <mxRectangle width="40" height="30" as="alternateBounds" />
          </mxGeometry>
        </mxCell>
        <mxCell id="ab3vpEOWy1NpWrEdWXUi-42" value="" style="shape=partialRectangle;connectable=0;fillColor=none;top=0;left=0;bottom=0;right=0;align=left;spacingLeft=6;overflow=hidden;whiteSpace=wrap;html=1;" vertex="1" parent="ab3vpEOWy1NpWrEdWXUi-40">
          <mxGeometry x="40" width="150" height="30" as="geometry">
            <mxRectangle width="150" height="30" as="alternateBounds" />
          </mxGeometry>
        </mxCell>
        <mxCell id="IvLmCjMSNPzF_hTHH6rZ-116" value="" style="shape=tableRow;horizontal=0;startSize=0;swimlaneHead=0;swimlaneBody=0;fillColor=none;collapsible=0;dropTarget=0;points=[[0,0.5],[1,0.5]];portConstraint=eastwest;top=0;left=0;right=0;bottom=0;" parent="IvLmCjMSNPzF_hTHH6rZ-109" vertex="1">
          <mxGeometry y="120" width="190" height="33" as="geometry" />
        </mxCell>
        <mxCell id="IvLmCjMSNPzF_hTHH6rZ-117" value="" style="shape=partialRectangle;connectable=0;fillColor=none;top=0;left=0;bottom=0;right=0;editable=1;overflow=hidden;whiteSpace=wrap;html=1;" parent="IvLmCjMSNPzF_hTHH6rZ-116" vertex="1">
          <mxGeometry width="40" height="33" as="geometry">
            <mxRectangle width="40" height="33" as="alternateBounds" />
          </mxGeometry>
        </mxCell>
        <mxCell id="IvLmCjMSNPzF_hTHH6rZ-118" value="start_time(timestamp)" style="shape=partialRectangle;connectable=0;fillColor=none;top=0;left=0;bottom=0;right=0;align=left;spacingLeft=6;overflow=hidden;whiteSpace=wrap;html=1;" parent="IvLmCjMSNPzF_hTHH6rZ-116" vertex="1">
          <mxGeometry x="40" width="150" height="33" as="geometry">
            <mxRectangle width="150" height="33" as="alternateBounds" />
          </mxGeometry>
        </mxCell>
        <mxCell id="IvLmCjMSNPzF_hTHH6rZ-119" value="" style="shape=tableRow;horizontal=0;startSize=0;swimlaneHead=0;swimlaneBody=0;fillColor=none;collapsible=0;dropTarget=0;points=[[0,0.5],[1,0.5]];portConstraint=eastwest;top=0;left=0;right=0;bottom=0;" parent="IvLmCjMSNPzF_hTHH6rZ-109" vertex="1">
          <mxGeometry y="153" width="190" height="40" as="geometry" />
        </mxCell>
        <mxCell id="IvLmCjMSNPzF_hTHH6rZ-120" value="" style="shape=partialRectangle;connectable=0;fillColor=none;top=0;left=0;bottom=0;right=0;editable=1;overflow=hidden;whiteSpace=wrap;html=1;" parent="IvLmCjMSNPzF_hTHH6rZ-119" vertex="1">
          <mxGeometry width="40" height="40" as="geometry">
            <mxRectangle width="40" height="40" as="alternateBounds" />
          </mxGeometry>
        </mxCell>
        <mxCell id="IvLmCjMSNPzF_hTHH6rZ-121" value="end_time(timestamp)" style="shape=partialRectangle;connectable=0;fillColor=none;top=0;left=0;bottom=0;right=0;align=left;spacingLeft=6;overflow=hidden;whiteSpace=wrap;html=1;" parent="IvLmCjMSNPzF_hTHH6rZ-119" vertex="1">
          <mxGeometry x="40" width="150" height="40" as="geometry">
            <mxRectangle width="150" height="40" as="alternateBounds" />
          </mxGeometry>
        </mxCell>
        <mxCell id="IvLmCjMSNPzF_hTHH6rZ-144" value="region_id(int)" style="text;html=1;align=center;verticalAlign=middle;resizable=0;points=[];autosize=1;strokeColor=none;fillColor=none;" parent="1" vertex="1">
          <mxGeometry x="220" y="78.00000000000003" width="90" height="30" as="geometry" />
        </mxCell>
        <mxCell id="IvLmCjMSNPzF_hTHH6rZ-146" value="" style="endArrow=none;html=1;rounded=0;" parent="1" edge="1">
          <mxGeometry relative="1" as="geometry">
            <mxPoint x="218.89" y="180.5" as="sourcePoint" />
            <mxPoint x="219" y="390" as="targetPoint" />
          </mxGeometry>
        </mxCell>
        <mxCell id="IvLmCjMSNPzF_hTHH6rZ-147" value="Region" style="shape=table;startSize=30;container=1;collapsible=1;childLayout=tableLayout;fixedRows=1;rowLines=0;fontStyle=1;align=center;resizeLast=1;html=1;" parent="1" vertex="1">
          <mxGeometry x="430" y="-223" width="200" height="220" as="geometry" />
        </mxCell>
        <mxCell id="IvLmCjMSNPzF_hTHH6rZ-148" value="" style="shape=tableRow;horizontal=0;startSize=0;swimlaneHead=0;swimlaneBody=0;fillColor=none;collapsible=0;dropTarget=0;points=[[0,0.5],[1,0.5]];portConstraint=eastwest;top=0;left=0;right=0;bottom=1;" parent="IvLmCjMSNPzF_hTHH6rZ-147" vertex="1">
          <mxGeometry y="30" width="200" height="30" as="geometry" />
        </mxCell>
        <mxCell id="IvLmCjMSNPzF_hTHH6rZ-149" value="PK" style="shape=partialRectangle;connectable=0;fillColor=none;top=0;left=0;bottom=0;right=0;fontStyle=1;overflow=hidden;whiteSpace=wrap;html=1;" parent="IvLmCjMSNPzF_hTHH6rZ-148" vertex="1">
          <mxGeometry width="30" height="30" as="geometry">
            <mxRectangle width="30" height="30" as="alternateBounds" />
          </mxGeometry>
        </mxCell>
        <mxCell id="IvLmCjMSNPzF_hTHH6rZ-150" value="region_id" style="shape=partialRectangle;connectable=0;fillColor=none;top=0;left=0;bottom=0;right=0;align=left;spacingLeft=6;fontStyle=5;overflow=hidden;whiteSpace=wrap;html=1;" parent="IvLmCjMSNPzF_hTHH6rZ-148" vertex="1">
          <mxGeometry x="30" width="170" height="30" as="geometry">
            <mxRectangle width="170" height="30" as="alternateBounds" />
          </mxGeometry>
        </mxCell>
        <mxCell id="IvLmCjMSNPzF_hTHH6rZ-151" value="" style="shape=tableRow;horizontal=0;startSize=0;swimlaneHead=0;swimlaneBody=0;fillColor=none;collapsible=0;dropTarget=0;points=[[0,0.5],[1,0.5]];portConstraint=eastwest;top=0;left=0;right=0;bottom=0;" parent="IvLmCjMSNPzF_hTHH6rZ-147" vertex="1">
          <mxGeometry y="60" width="200" height="30" as="geometry" />
        </mxCell>
        <mxCell id="IvLmCjMSNPzF_hTHH6rZ-152" value="" style="shape=partialRectangle;connectable=0;fillColor=none;top=0;left=0;bottom=0;right=0;editable=1;overflow=hidden;whiteSpace=wrap;html=1;" parent="IvLmCjMSNPzF_hTHH6rZ-151" vertex="1">
          <mxGeometry width="30" height="30" as="geometry">
            <mxRectangle width="30" height="30" as="alternateBounds" />
          </mxGeometry>
        </mxCell>
        <mxCell id="IvLmCjMSNPzF_hTHH6rZ-153" value="region_name(varchar 250)" style="shape=partialRectangle;connectable=0;fillColor=none;top=0;left=0;bottom=0;right=0;align=left;spacingLeft=6;overflow=hidden;whiteSpace=wrap;html=1;" parent="IvLmCjMSNPzF_hTHH6rZ-151" vertex="1">
          <mxGeometry x="30" width="170" height="30" as="geometry">
            <mxRectangle width="170" height="30" as="alternateBounds" />
          </mxGeometry>
        </mxCell>
        <mxCell id="IvLmCjMSNPzF_hTHH6rZ-154" value="" style="shape=tableRow;horizontal=0;startSize=0;swimlaneHead=0;swimlaneBody=0;fillColor=none;collapsible=0;dropTarget=0;points=[[0,0.5],[1,0.5]];portConstraint=eastwest;top=0;left=0;right=0;bottom=0;" parent="IvLmCjMSNPzF_hTHH6rZ-147" vertex="1">
          <mxGeometry y="90" width="200" height="30" as="geometry" />
        </mxCell>
        <mxCell id="IvLmCjMSNPzF_hTHH6rZ-155" value="" style="shape=partialRectangle;connectable=0;fillColor=none;top=0;left=0;bottom=0;right=0;editable=1;overflow=hidden;whiteSpace=wrap;html=1;" parent="IvLmCjMSNPzF_hTHH6rZ-154" vertex="1">
          <mxGeometry width="30" height="30" as="geometry">
            <mxRectangle width="30" height="30" as="alternateBounds" />
          </mxGeometry>
        </mxCell>
        <mxCell id="IvLmCjMSNPzF_hTHH6rZ-156" value="coordinates(demical)" style="shape=partialRectangle;connectable=0;fillColor=none;top=0;left=0;bottom=0;right=0;align=left;spacingLeft=6;overflow=hidden;whiteSpace=wrap;html=1;" parent="IvLmCjMSNPzF_hTHH6rZ-154" vertex="1">
          <mxGeometry x="30" width="170" height="30" as="geometry">
            <mxRectangle width="170" height="30" as="alternateBounds" />
          </mxGeometry>
        </mxCell>
        <mxCell id="IvLmCjMSNPzF_hTHH6rZ-157" value="" style="shape=tableRow;horizontal=0;startSize=0;swimlaneHead=0;swimlaneBody=0;fillColor=none;collapsible=0;dropTarget=0;points=[[0,0.5],[1,0.5]];portConstraint=eastwest;top=0;left=0;right=0;bottom=0;" parent="IvLmCjMSNPzF_hTHH6rZ-147" vertex="1">
          <mxGeometry y="120" width="200" height="30" as="geometry" />
        </mxCell>
        <mxCell id="IvLmCjMSNPzF_hTHH6rZ-158" value="" style="shape=partialRectangle;connectable=0;fillColor=none;top=0;left=0;bottom=0;right=0;editable=1;overflow=hidden;whiteSpace=wrap;html=1;" parent="IvLmCjMSNPzF_hTHH6rZ-157" vertex="1">
          <mxGeometry width="30" height="30" as="geometry">
            <mxRectangle width="30" height="30" as="alternateBounds" />
          </mxGeometry>
        </mxCell>
        <mxCell id="IvLmCjMSNPzF_hTHH6rZ-159" value="area_km2(demical)" style="shape=partialRectangle;connectable=0;fillColor=none;top=0;left=0;bottom=0;right=0;align=left;spacingLeft=6;overflow=hidden;whiteSpace=wrap;html=1;" parent="IvLmCjMSNPzF_hTHH6rZ-157" vertex="1">
          <mxGeometry x="30" width="170" height="30" as="geometry">
            <mxRectangle width="170" height="30" as="alternateBounds" />
          </mxGeometry>
        </mxCell>
        <mxCell id="IvLmCjMSNPzF_hTHH6rZ-162" value="geometry" style="text;html=1;align=center;verticalAlign=middle;resizable=0;points=[];autosize=1;strokeColor=none;fillColor=none;" parent="1" vertex="1">
          <mxGeometry x="460" y="-73" width="70" height="30" as="geometry" />
        </mxCell>
        <mxCell id="IvLmCjMSNPzF_hTHH6rZ-163" value="&lt;span style=&quot;background-color: rgb(255, 255, 153);&quot;&gt;boundaries (геолакация ?)&lt;/span&gt;" style="text;html=1;align=center;verticalAlign=middle;resizable=0;points=[];autosize=1;strokeColor=none;fillColor=none;" parent="1" vertex="1">
          <mxGeometry x="455" y="-43" width="170" height="30" as="geometry" />
        </mxCell>
        <mxCell id="IvLmCjMSNPzF_hTHH6rZ-164" value="" style="endArrow=none;html=1;rounded=0;" parent="1" edge="1">
          <mxGeometry relative="1" as="geometry">
            <mxPoint x="460" y="-83" as="sourcePoint" />
            <mxPoint x="460" y="-3" as="targetPoint" />
          </mxGeometry>
        </mxCell>
        <mxCell id="IvLmCjMSNPzF_hTHH6rZ-202" value="Report" style="shape=table;startSize=30;container=1;collapsible=1;childLayout=tableLayout;fixedRows=1;rowLines=0;fontStyle=1;align=center;resizeLast=1;html=1;" parent="1" vertex="1">
          <mxGeometry x="-425" y="-63" width="200" height="203" as="geometry" />
        </mxCell>
        <mxCell id="IvLmCjMSNPzF_hTHH6rZ-203" value="" style="shape=tableRow;horizontal=0;startSize=0;swimlaneHead=0;swimlaneBody=0;fillColor=none;collapsible=0;dropTarget=0;points=[[0,0.5],[1,0.5]];portConstraint=eastwest;top=0;left=0;right=0;bottom=1;" parent="IvLmCjMSNPzF_hTHH6rZ-202" vertex="1">
          <mxGeometry y="30" width="200" height="30" as="geometry" />
        </mxCell>
        <mxCell id="IvLmCjMSNPzF_hTHH6rZ-204" value="PK" style="shape=partialRectangle;connectable=0;fillColor=none;top=0;left=0;bottom=0;right=0;fontStyle=1;overflow=hidden;whiteSpace=wrap;html=1;" parent="IvLmCjMSNPzF_hTHH6rZ-203" vertex="1">
          <mxGeometry width="30" height="30" as="geometry">
            <mxRectangle width="30" height="30" as="alternateBounds" />
          </mxGeometry>
        </mxCell>
        <mxCell id="IvLmCjMSNPzF_hTHH6rZ-205" value="report_id" style="shape=partialRectangle;connectable=0;fillColor=none;top=0;left=0;bottom=0;right=0;align=left;spacingLeft=6;fontStyle=5;overflow=hidden;whiteSpace=wrap;html=1;" parent="IvLmCjMSNPzF_hTHH6rZ-203" vertex="1">
          <mxGeometry x="30" width="170" height="30" as="geometry">
            <mxRectangle width="170" height="30" as="alternateBounds" />
          </mxGeometry>
        </mxCell>
        <mxCell id="IvLmCjMSNPzF_hTHH6rZ-206" value="" style="shape=tableRow;horizontal=0;startSize=0;swimlaneHead=0;swimlaneBody=0;fillColor=none;collapsible=0;dropTarget=0;points=[[0,0.5],[1,0.5]];portConstraint=eastwest;top=0;left=0;right=0;bottom=0;" parent="IvLmCjMSNPzF_hTHH6rZ-202" vertex="1">
          <mxGeometry y="60" width="200" height="30" as="geometry" />
        </mxCell>
        <mxCell id="IvLmCjMSNPzF_hTHH6rZ-207" value="FK" style="shape=partialRectangle;connectable=0;fillColor=none;top=0;left=0;bottom=0;right=0;editable=1;overflow=hidden;whiteSpace=wrap;html=1;" parent="IvLmCjMSNPzF_hTHH6rZ-206" vertex="1">
          <mxGeometry width="30" height="30" as="geometry">
            <mxRectangle width="30" height="30" as="alternateBounds" />
          </mxGeometry>
        </mxCell>
        <mxCell id="IvLmCjMSNPzF_hTHH6rZ-208" value="report_date (json )" style="shape=partialRectangle;connectable=0;fillColor=none;top=0;left=0;bottom=0;right=0;align=left;spacingLeft=6;overflow=hidden;whiteSpace=wrap;html=1;" parent="IvLmCjMSNPzF_hTHH6rZ-206" vertex="1">
          <mxGeometry x="30" width="170" height="30" as="geometry">
            <mxRectangle width="170" height="30" as="alternateBounds" />
          </mxGeometry>
        </mxCell>
        <mxCell id="IvLmCjMSNPzF_hTHH6rZ-209" value="" style="shape=tableRow;horizontal=0;startSize=0;swimlaneHead=0;swimlaneBody=0;fillColor=none;collapsible=0;dropTarget=0;points=[[0,0.5],[1,0.5]];portConstraint=eastwest;top=0;left=0;right=0;bottom=0;" parent="IvLmCjMSNPzF_hTHH6rZ-202" vertex="1">
          <mxGeometry y="90" width="200" height="30" as="geometry" />
        </mxCell>
        <mxCell id="IvLmCjMSNPzF_hTHH6rZ-210" value="" style="shape=partialRectangle;connectable=0;fillColor=none;top=0;left=0;bottom=0;right=0;editable=1;overflow=hidden;whiteSpace=wrap;html=1;" parent="IvLmCjMSNPzF_hTHH6rZ-209" vertex="1">
          <mxGeometry width="30" height="30" as="geometry">
            <mxRectangle width="30" height="30" as="alternateBounds" />
          </mxGeometry>
        </mxCell>
        <mxCell id="IvLmCjMSNPzF_hTHH6rZ-211" value="coverage_period(date)" style="shape=partialRectangle;connectable=0;fillColor=none;top=0;left=0;bottom=0;right=0;align=left;spacingLeft=6;overflow=hidden;whiteSpace=wrap;html=1;" parent="IvLmCjMSNPzF_hTHH6rZ-209" vertex="1">
          <mxGeometry x="30" width="170" height="30" as="geometry">
            <mxRectangle width="170" height="30" as="alternateBounds" />
          </mxGeometry>
        </mxCell>
        <mxCell id="IvLmCjMSNPzF_hTHH6rZ-212" value="" style="shape=tableRow;horizontal=0;startSize=0;swimlaneHead=0;swimlaneBody=0;fillColor=none;collapsible=0;dropTarget=0;points=[[0,0.5],[1,0.5]];portConstraint=eastwest;top=0;left=0;right=0;bottom=0;" parent="IvLmCjMSNPzF_hTHH6rZ-202" vertex="1">
          <mxGeometry y="120" width="200" height="30" as="geometry" />
        </mxCell>
        <mxCell id="IvLmCjMSNPzF_hTHH6rZ-213" value="" style="shape=partialRectangle;connectable=0;fillColor=none;top=0;left=0;bottom=0;right=0;editable=1;overflow=hidden;whiteSpace=wrap;html=1;" parent="IvLmCjMSNPzF_hTHH6rZ-212" vertex="1">
          <mxGeometry width="30" height="30" as="geometry">
            <mxRectangle width="30" height="30" as="alternateBounds" />
          </mxGeometry>
        </mxCell>
        <mxCell id="IvLmCjMSNPzF_hTHH6rZ-214" value="flight_id(serial/varchar)" style="shape=partialRectangle;connectable=0;fillColor=none;top=0;left=0;bottom=0;right=0;align=left;spacingLeft=6;overflow=hidden;whiteSpace=wrap;html=1;" parent="IvLmCjMSNPzF_hTHH6rZ-212" vertex="1">
          <mxGeometry x="30" width="170" height="30" as="geometry">
            <mxRectangle width="170" height="30" as="alternateBounds" />
          </mxGeometry>
        </mxCell>
        <mxCell id="IvLmCjMSNPzF_hTHH6rZ-220" value="admissin_center(varchar)" style="text;html=1;align=center;verticalAlign=middle;resizable=0;points=[];autosize=1;strokeColor=none;fillColor=none;" parent="1" vertex="1">
          <mxGeometry x="-75" y="257" width="160" height="30" as="geometry" />
        </mxCell>
        <mxCell id="IvLmCjMSNPzF_hTHH6rZ-225" value="" style="endArrow=none;html=1;rounded=0;" parent="1" edge="1">
          <mxGeometry relative="1" as="geometry">
            <mxPoint x="-395" y="80" as="sourcePoint" />
            <mxPoint x="-390" y="90" as="targetPoint" />
          </mxGeometry>
        </mxCell>
        <mxCell id="IvLmCjMSNPzF_hTHH6rZ-230" value="FK" style="text;html=1;align=center;verticalAlign=middle;resizable=0;points=[];autosize=1;strokeColor=none;fillColor=none;" parent="1" vertex="1">
          <mxGeometry x="-60" y="1218" width="40" height="30" as="geometry" />
        </mxCell>
        <mxCell id="IvLmCjMSNPzF_hTHH6rZ-251" value="" style="endArrow=none;html=1;rounded=0;" parent="1" edge="1">
          <mxGeometry relative="1" as="geometry">
            <mxPoint x="715" y="379.37000000000006" as="sourcePoint" />
            <mxPoint x="715" y="379.37000000000006" as="targetPoint" />
          </mxGeometry>
        </mxCell>
        <mxCell id="IvLmCjMSNPzF_hTHH6rZ-252" value="ExelFile" style="shape=table;startSize=30;container=1;collapsible=1;childLayout=tableLayout;fixedRows=1;rowLines=0;fontStyle=1;align=center;resizeLast=1;html=1;" parent="1" vertex="1">
          <mxGeometry x="780" y="-240" width="220" height="390" as="geometry" />
        </mxCell>
        <mxCell id="IvLmCjMSNPzF_hTHH6rZ-253" value="" style="shape=tableRow;horizontal=0;startSize=0;swimlaneHead=0;swimlaneBody=0;fillColor=none;collapsible=0;dropTarget=0;points=[[0,0.5],[1,0.5]];portConstraint=eastwest;top=0;left=0;right=0;bottom=1;" parent="IvLmCjMSNPzF_hTHH6rZ-252" vertex="1">
          <mxGeometry y="30" width="220" height="30" as="geometry" />
        </mxCell>
        <mxCell id="IvLmCjMSNPzF_hTHH6rZ-254" value="PK" style="shape=partialRectangle;connectable=0;fillColor=none;top=0;left=0;bottom=0;right=0;fontStyle=1;overflow=hidden;whiteSpace=wrap;html=1;" parent="IvLmCjMSNPzF_hTHH6rZ-253" vertex="1">
          <mxGeometry width="30" height="30" as="geometry">
            <mxRectangle width="30" height="30" as="alternateBounds" />
          </mxGeometry>
        </mxCell>
        <mxCell id="IvLmCjMSNPzF_hTHH6rZ-255" value="file_id" style="shape=partialRectangle;connectable=0;fillColor=none;top=0;left=0;bottom=0;right=0;align=left;spacingLeft=6;fontStyle=5;overflow=hidden;whiteSpace=wrap;html=1;" parent="IvLmCjMSNPzF_hTHH6rZ-253" vertex="1">
          <mxGeometry x="30" width="190" height="30" as="geometry">
            <mxRectangle width="190" height="30" as="alternateBounds" />
          </mxGeometry>
        </mxCell>
        <mxCell id="IvLmCjMSNPzF_hTHH6rZ-256" value="" style="shape=tableRow;horizontal=0;startSize=0;swimlaneHead=0;swimlaneBody=0;fillColor=none;collapsible=0;dropTarget=0;points=[[0,0.5],[1,0.5]];portConstraint=eastwest;top=0;left=0;right=0;bottom=0;" parent="IvLmCjMSNPzF_hTHH6rZ-252" vertex="1">
          <mxGeometry y="60" width="220" height="30" as="geometry" />
        </mxCell>
        <mxCell id="IvLmCjMSNPzF_hTHH6rZ-257" value="" style="shape=partialRectangle;connectable=0;fillColor=none;top=0;left=0;bottom=0;right=0;editable=1;overflow=hidden;whiteSpace=wrap;html=1;" parent="IvLmCjMSNPzF_hTHH6rZ-256" vertex="1">
          <mxGeometry width="30" height="30" as="geometry">
            <mxRectangle width="30" height="30" as="alternateBounds" />
          </mxGeometry>
        </mxCell>
        <mxCell id="IvLmCjMSNPzF_hTHH6rZ-258" value="file_name(varchar250)" style="shape=partialRectangle;connectable=0;fillColor=none;top=0;left=0;bottom=0;right=0;align=left;spacingLeft=6;overflow=hidden;whiteSpace=wrap;html=1;" parent="IvLmCjMSNPzF_hTHH6rZ-256" vertex="1">
          <mxGeometry x="30" width="190" height="30" as="geometry">
            <mxRectangle width="190" height="30" as="alternateBounds" />
          </mxGeometry>
        </mxCell>
        <mxCell id="IvLmCjMSNPzF_hTHH6rZ-259" value="" style="shape=tableRow;horizontal=0;startSize=0;swimlaneHead=0;swimlaneBody=0;fillColor=none;collapsible=0;dropTarget=0;points=[[0,0.5],[1,0.5]];portConstraint=eastwest;top=0;left=0;right=0;bottom=0;" parent="IvLmCjMSNPzF_hTHH6rZ-252" vertex="1">
          <mxGeometry y="90" width="220" height="30" as="geometry" />
        </mxCell>
        <mxCell id="IvLmCjMSNPzF_hTHH6rZ-260" value="" style="shape=partialRectangle;connectable=0;fillColor=none;top=0;left=0;bottom=0;right=0;editable=1;overflow=hidden;whiteSpace=wrap;html=1;" parent="IvLmCjMSNPzF_hTHH6rZ-259" vertex="1">
          <mxGeometry width="30" height="30" as="geometry">
            <mxRectangle width="30" height="30" as="alternateBounds" />
          </mxGeometry>
        </mxCell>
        <mxCell id="IvLmCjMSNPzF_hTHH6rZ-261" value="file_size(bigint)" style="shape=partialRectangle;connectable=0;fillColor=none;top=0;left=0;bottom=0;right=0;align=left;spacingLeft=6;overflow=hidden;whiteSpace=wrap;html=1;" parent="IvLmCjMSNPzF_hTHH6rZ-259" vertex="1">
          <mxGeometry x="30" width="190" height="30" as="geometry">
            <mxRectangle width="190" height="30" as="alternateBounds" />
          </mxGeometry>
        </mxCell>
        <mxCell id="IvLmCjMSNPzF_hTHH6rZ-262" value="" style="shape=tableRow;horizontal=0;startSize=0;swimlaneHead=0;swimlaneBody=0;fillColor=none;collapsible=0;dropTarget=0;points=[[0,0.5],[1,0.5]];portConstraint=eastwest;top=0;left=0;right=0;bottom=0;" parent="IvLmCjMSNPzF_hTHH6rZ-252" vertex="1">
          <mxGeometry y="120" width="220" height="30" as="geometry" />
        </mxCell>
        <mxCell id="IvLmCjMSNPzF_hTHH6rZ-263" value="" style="shape=partialRectangle;connectable=0;fillColor=none;top=0;left=0;bottom=0;right=0;editable=1;overflow=hidden;whiteSpace=wrap;html=1;" parent="IvLmCjMSNPzF_hTHH6rZ-262" vertex="1">
          <mxGeometry width="30" height="30" as="geometry">
            <mxRectangle width="30" height="30" as="alternateBounds" />
          </mxGeometry>
        </mxCell>
        <mxCell id="IvLmCjMSNPzF_hTHH6rZ-264" value="upload_date(timestamp)" style="shape=partialRectangle;connectable=0;fillColor=none;top=0;left=0;bottom=0;right=0;align=left;spacingLeft=6;overflow=hidden;whiteSpace=wrap;html=1;" parent="IvLmCjMSNPzF_hTHH6rZ-262" vertex="1">
          <mxGeometry x="30" width="190" height="30" as="geometry">
            <mxRectangle width="190" height="30" as="alternateBounds" />
          </mxGeometry>
        </mxCell>
        <mxCell id="IvLmCjMSNPzF_hTHH6rZ-166" value="ExcelData" style="shape=table;startSize=25;container=1;collapsible=1;childLayout=tableLayout;fixedRows=1;rowLines=0;fontStyle=1;align=center;resizeLast=1;html=1;" parent="1" vertex="1">
          <mxGeometry x="815" y="257" width="200" height="203" as="geometry" />
        </mxCell>
        <mxCell id="IvLmCjMSNPzF_hTHH6rZ-167" value="" style="shape=tableRow;horizontal=0;startSize=0;swimlaneHead=0;swimlaneBody=0;fillColor=none;collapsible=0;dropTarget=0;points=[[0,0.5],[1,0.5]];portConstraint=eastwest;top=0;left=0;right=0;bottom=1;" parent="IvLmCjMSNPzF_hTHH6rZ-166" vertex="1">
          <mxGeometry y="25" width="200" height="30" as="geometry" />
        </mxCell>
        <mxCell id="IvLmCjMSNPzF_hTHH6rZ-168" value="PK" style="shape=partialRectangle;connectable=0;fillColor=none;top=0;left=0;bottom=0;right=0;fontStyle=1;overflow=hidden;whiteSpace=wrap;html=1;" parent="IvLmCjMSNPzF_hTHH6rZ-167" vertex="1">
          <mxGeometry width="30" height="30" as="geometry">
            <mxRectangle width="30" height="30" as="alternateBounds" />
          </mxGeometry>
        </mxCell>
        <mxCell id="IvLmCjMSNPzF_hTHH6rZ-169" value="data_id" style="shape=partialRectangle;connectable=0;fillColor=none;top=0;left=0;bottom=0;right=0;align=left;spacingLeft=6;fontStyle=5;overflow=hidden;whiteSpace=wrap;html=1;" parent="IvLmCjMSNPzF_hTHH6rZ-167" vertex="1">
          <mxGeometry x="30" width="170" height="30" as="geometry">
            <mxRectangle width="170" height="30" as="alternateBounds" />
          </mxGeometry>
        </mxCell>
        <mxCell id="IvLmCjMSNPzF_hTHH6rZ-170" value="" style="shape=tableRow;horizontal=0;startSize=0;swimlaneHead=0;swimlaneBody=0;fillColor=none;collapsible=0;dropTarget=0;points=[[0,0.5],[1,0.5]];portConstraint=eastwest;top=0;left=0;right=0;bottom=0;" parent="IvLmCjMSNPzF_hTHH6rZ-166" vertex="1">
          <mxGeometry y="55" width="200" height="30" as="geometry" />
        </mxCell>
        <mxCell id="IvLmCjMSNPzF_hTHH6rZ-171" value="" style="shape=partialRectangle;connectable=0;fillColor=none;top=0;left=0;bottom=0;right=0;editable=1;overflow=hidden;whiteSpace=wrap;html=1;" parent="IvLmCjMSNPzF_hTHH6rZ-170" vertex="1">
          <mxGeometry width="30" height="30" as="geometry">
            <mxRectangle width="30" height="30" as="alternateBounds" />
          </mxGeometry>
        </mxCell>
        <mxCell id="IvLmCjMSNPzF_hTHH6rZ-172" value="file_name (varchar/json)" style="shape=partialRectangle;connectable=0;fillColor=none;top=0;left=0;bottom=0;right=0;align=left;spacingLeft=6;overflow=hidden;whiteSpace=wrap;html=1;" parent="IvLmCjMSNPzF_hTHH6rZ-170" vertex="1">
          <mxGeometry x="30" width="170" height="30" as="geometry">
            <mxRectangle width="170" height="30" as="alternateBounds" />
          </mxGeometry>
        </mxCell>
        <mxCell id="IvLmCjMSNPzF_hTHH6rZ-173" value="" style="shape=tableRow;horizontal=0;startSize=0;swimlaneHead=0;swimlaneBody=0;fillColor=none;collapsible=0;dropTarget=0;points=[[0,0.5],[1,0.5]];portConstraint=eastwest;top=0;left=0;right=0;bottom=0;" parent="IvLmCjMSNPzF_hTHH6rZ-166" vertex="1">
          <mxGeometry y="85" width="200" height="30" as="geometry" />
        </mxCell>
        <mxCell id="IvLmCjMSNPzF_hTHH6rZ-174" value="" style="shape=partialRectangle;connectable=0;fillColor=none;top=0;left=0;bottom=0;right=0;editable=1;overflow=hidden;whiteSpace=wrap;html=1;" parent="IvLmCjMSNPzF_hTHH6rZ-173" vertex="1">
          <mxGeometry width="30" height="30" as="geometry">
            <mxRectangle width="30" height="30" as="alternateBounds" />
          </mxGeometry>
        </mxCell>
        <mxCell id="IvLmCjMSNPzF_hTHH6rZ-175" value="column_name (varchar /jsonb)" style="shape=partialRectangle;connectable=0;fillColor=none;top=0;left=0;bottom=0;right=0;align=left;spacingLeft=6;overflow=hidden;whiteSpace=wrap;html=1;" parent="IvLmCjMSNPzF_hTHH6rZ-173" vertex="1">
          <mxGeometry x="30" width="170" height="30" as="geometry">
            <mxRectangle width="170" height="30" as="alternateBounds" />
          </mxGeometry>
        </mxCell>
        <mxCell id="IvLmCjMSNPzF_hTHH6rZ-176" value="" style="shape=tableRow;horizontal=0;startSize=0;swimlaneHead=0;swimlaneBody=0;fillColor=none;collapsible=0;dropTarget=0;points=[[0,0.5],[1,0.5]];portConstraint=eastwest;top=0;left=0;right=0;bottom=0;" parent="IvLmCjMSNPzF_hTHH6rZ-166" vertex="1">
          <mxGeometry y="115" width="200" height="48" as="geometry" />
        </mxCell>
        <mxCell id="IvLmCjMSNPzF_hTHH6rZ-177" value="" style="shape=partialRectangle;connectable=0;fillColor=none;top=0;left=0;bottom=0;right=0;editable=1;overflow=hidden;whiteSpace=wrap;html=1;" parent="IvLmCjMSNPzF_hTHH6rZ-176" vertex="1">
          <mxGeometry width="30" height="48" as="geometry">
            <mxRectangle width="30" height="48" as="alternateBounds" />
          </mxGeometry>
        </mxCell>
        <mxCell id="IvLmCjMSNPzF_hTHH6rZ-178" value="value_column (varchar/jsonb" style="shape=partialRectangle;connectable=0;fillColor=none;top=0;left=0;bottom=0;right=0;align=left;spacingLeft=6;overflow=hidden;whiteSpace=wrap;html=1;" parent="IvLmCjMSNPzF_hTHH6rZ-176" vertex="1">
          <mxGeometry x="30" width="170" height="48" as="geometry">
            <mxRectangle width="170" height="48" as="alternateBounds" />
          </mxGeometry>
        </mxCell>
        <mxCell id="ab3vpEOWy1NpWrEdWXUi-2" value="ReportData" style="shape=table;startSize=30;container=1;collapsible=1;childLayout=tableLayout;fixedRows=1;rowLines=0;fontStyle=1;align=center;resizeLast=1;html=1;" vertex="1" parent="1">
          <mxGeometry x="-700" y="-63" width="200" height="170" as="geometry" />
        </mxCell>
        <mxCell id="ab3vpEOWy1NpWrEdWXUi-3" value="" style="shape=tableRow;horizontal=0;startSize=0;swimlaneHead=0;swimlaneBody=0;fillColor=none;collapsible=0;dropTarget=0;points=[[0,0.5],[1,0.5]];portConstraint=eastwest;top=0;left=0;right=0;bottom=1;" vertex="1" parent="ab3vpEOWy1NpWrEdWXUi-2">
          <mxGeometry y="30" width="200" height="30" as="geometry" />
        </mxCell>
        <mxCell id="ab3vpEOWy1NpWrEdWXUi-4" value="PK" style="shape=partialRectangle;connectable=0;fillColor=none;top=0;left=0;bottom=0;right=0;fontStyle=1;overflow=hidden;whiteSpace=wrap;html=1;" vertex="1" parent="ab3vpEOWy1NpWrEdWXUi-3">
          <mxGeometry width="30" height="30" as="geometry">
            <mxRectangle width="30" height="30" as="alternateBounds" />
          </mxGeometry>
        </mxCell>
        <mxCell id="ab3vpEOWy1NpWrEdWXUi-5" value="report_data_id" style="shape=partialRectangle;connectable=0;fillColor=none;top=0;left=0;bottom=0;right=0;align=left;spacingLeft=6;fontStyle=5;overflow=hidden;whiteSpace=wrap;html=1;" vertex="1" parent="ab3vpEOWy1NpWrEdWXUi-3">
          <mxGeometry x="30" width="170" height="30" as="geometry">
            <mxRectangle width="170" height="30" as="alternateBounds" />
          </mxGeometry>
        </mxCell>
        <mxCell id="ab3vpEOWy1NpWrEdWXUi-6" value="" style="shape=tableRow;horizontal=0;startSize=0;swimlaneHead=0;swimlaneBody=0;fillColor=none;collapsible=0;dropTarget=0;points=[[0,0.5],[1,0.5]];portConstraint=eastwest;top=0;left=0;right=0;bottom=0;" vertex="1" parent="ab3vpEOWy1NpWrEdWXUi-2">
          <mxGeometry y="60" width="200" height="30" as="geometry" />
        </mxCell>
        <mxCell id="ab3vpEOWy1NpWrEdWXUi-7" value="FK" style="shape=partialRectangle;connectable=0;fillColor=none;top=0;left=0;bottom=0;right=0;editable=1;overflow=hidden;whiteSpace=wrap;html=1;" vertex="1" parent="ab3vpEOWy1NpWrEdWXUi-6">
          <mxGeometry width="30" height="30" as="geometry">
            <mxRectangle width="30" height="30" as="alternateBounds" />
          </mxGeometry>
        </mxCell>
        <mxCell id="ab3vpEOWy1NpWrEdWXUi-8" value="report_id (int)" style="shape=partialRectangle;connectable=0;fillColor=none;top=0;left=0;bottom=0;right=0;align=left;spacingLeft=6;overflow=hidden;whiteSpace=wrap;html=1;" vertex="1" parent="ab3vpEOWy1NpWrEdWXUi-6">
          <mxGeometry x="30" width="170" height="30" as="geometry">
            <mxRectangle width="170" height="30" as="alternateBounds" />
          </mxGeometry>
        </mxCell>
        <mxCell id="ab3vpEOWy1NpWrEdWXUi-9" value="" style="shape=tableRow;horizontal=0;startSize=0;swimlaneHead=0;swimlaneBody=0;fillColor=none;collapsible=0;dropTarget=0;points=[[0,0.5],[1,0.5]];portConstraint=eastwest;top=0;left=0;right=0;bottom=0;" vertex="1" parent="ab3vpEOWy1NpWrEdWXUi-2">
          <mxGeometry y="90" width="200" height="30" as="geometry" />
        </mxCell>
        <mxCell id="ab3vpEOWy1NpWrEdWXUi-10" value="" style="shape=partialRectangle;connectable=0;fillColor=none;top=0;left=0;bottom=0;right=0;editable=1;overflow=hidden;whiteSpace=wrap;html=1;" vertex="1" parent="ab3vpEOWy1NpWrEdWXUi-9">
          <mxGeometry width="30" height="30" as="geometry">
            <mxRectangle width="30" height="30" as="alternateBounds" />
          </mxGeometry>
        </mxCell>
        <mxCell id="ab3vpEOWy1NpWrEdWXUi-11" value="metric_name(varchar 100)" style="shape=partialRectangle;connectable=0;fillColor=none;top=0;left=0;bottom=0;right=0;align=left;spacingLeft=6;overflow=hidden;whiteSpace=wrap;html=1;" vertex="1" parent="ab3vpEOWy1NpWrEdWXUi-9">
          <mxGeometry x="30" width="170" height="30" as="geometry">
            <mxRectangle width="170" height="30" as="alternateBounds" />
          </mxGeometry>
        </mxCell>
        <mxCell id="ab3vpEOWy1NpWrEdWXUi-12" value="" style="shape=tableRow;horizontal=0;startSize=0;swimlaneHead=0;swimlaneBody=0;fillColor=none;collapsible=0;dropTarget=0;points=[[0,0.5],[1,0.5]];portConstraint=eastwest;top=0;left=0;right=0;bottom=0;" vertex="1" parent="ab3vpEOWy1NpWrEdWXUi-2">
          <mxGeometry y="120" width="200" height="30" as="geometry" />
        </mxCell>
        <mxCell id="ab3vpEOWy1NpWrEdWXUi-13" value="" style="shape=partialRectangle;connectable=0;fillColor=none;top=0;left=0;bottom=0;right=0;editable=1;overflow=hidden;whiteSpace=wrap;html=1;" vertex="1" parent="ab3vpEOWy1NpWrEdWXUi-12">
          <mxGeometry width="30" height="30" as="geometry">
            <mxRectangle width="30" height="30" as="alternateBounds" />
          </mxGeometry>
        </mxCell>
        <mxCell id="ab3vpEOWy1NpWrEdWXUi-14" value="metric_value(text)" style="shape=partialRectangle;connectable=0;fillColor=none;top=0;left=0;bottom=0;right=0;align=left;spacingLeft=6;overflow=hidden;whiteSpace=wrap;html=1;" vertex="1" parent="ab3vpEOWy1NpWrEdWXUi-12">
          <mxGeometry x="30" width="170" height="30" as="geometry">
            <mxRectangle width="170" height="30" as="alternateBounds" />
          </mxGeometry>
        </mxCell>
        <mxCell id="ab3vpEOWy1NpWrEdWXUi-17" value="time_period (date)" style="text;html=1;align=center;verticalAlign=middle;resizable=0;points=[];autosize=1;strokeColor=none;fillColor=none;" vertex="1" parent="1">
          <mxGeometry x="-675" y="82" width="120" height="30" as="geometry" />
        </mxCell>
        <mxCell id="ab3vpEOWy1NpWrEdWXUi-20" value="" style="endArrow=ERone;html=1;rounded=0;exitX=0.335;exitY=-0.007;exitDx=0;exitDy=0;exitPerimeter=0;startArrow=ERoneToMany;startFill=0;endFill=0;" edge="1" parent="1" source="IvLmCjMSNPzF_hTHH6rZ-202">
          <mxGeometry width="50" height="50" relative="1" as="geometry">
            <mxPoint x="-370" y="-190" as="sourcePoint" />
            <mxPoint x="-100" y="-190" as="targetPoint" />
            <Array as="points">
              <mxPoint x="-360" y="-190" />
            </Array>
          </mxGeometry>
        </mxCell>
        <mxCell id="ab3vpEOWy1NpWrEdWXUi-21" value="" style="endArrow=ERone;html=1;rounded=0;entryX=-0.005;entryY=0.933;entryDx=0;entryDy=0;entryPerimeter=0;exitX=0.011;exitY=0.2;exitDx=0;exitDy=0;exitPerimeter=0;endFill=0;startArrow=ERoneToMany;startFill=0;" edge="1" parent="1" source="IvLmCjMSNPzF_hTHH6rZ-52" target="IvLmCjMSNPzF_hTHH6rZ-16">
          <mxGeometry width="50" height="50" relative="1" as="geometry">
            <mxPoint x="-190" y="10" as="sourcePoint" />
            <mxPoint x="-140" y="-40" as="targetPoint" />
            <Array as="points">
              <mxPoint x="-190" y="136" />
              <mxPoint x="-190" y="-152" />
            </Array>
          </mxGeometry>
        </mxCell>
        <mxCell id="ab3vpEOWy1NpWrEdWXUi-23" value="" style="endArrow=ERone;html=1;rounded=0;exitX=0.985;exitY=0.867;exitDx=0;exitDy=0;exitPerimeter=0;entryX=-0.005;entryY=0.767;entryDx=0;entryDy=0;entryPerimeter=0;startArrow=ERoneToMany;startFill=0;endFill=0;" edge="1" parent="1" source="ab3vpEOWy1NpWrEdWXUi-6" target="IvLmCjMSNPzF_hTHH6rZ-206">
          <mxGeometry width="50" height="50" relative="1" as="geometry">
            <mxPoint x="-490" y="70" as="sourcePoint" />
            <mxPoint x="-440" y="20" as="targetPoint" />
          </mxGeometry>
        </mxCell>
        <mxCell id="ab3vpEOWy1NpWrEdWXUi-24" value="Flight_mapping" style="shape=table;startSize=30;container=1;collapsible=1;childLayout=tableLayout;fixedRows=1;rowLines=0;fontStyle=1;align=center;resizeLast=1;html=1;" vertex="1" parent="1">
          <mxGeometry x="430" y="120" width="200" height="150" as="geometry" />
        </mxCell>
        <mxCell id="ab3vpEOWy1NpWrEdWXUi-25" value="" style="shape=tableRow;horizontal=0;startSize=0;swimlaneHead=0;swimlaneBody=0;fillColor=none;collapsible=0;dropTarget=0;points=[[0,0.5],[1,0.5]];portConstraint=eastwest;top=0;left=0;right=0;bottom=1;" vertex="1" parent="ab3vpEOWy1NpWrEdWXUi-24">
          <mxGeometry y="30" width="200" height="30" as="geometry" />
        </mxCell>
        <mxCell id="ab3vpEOWy1NpWrEdWXUi-26" value="PK" style="shape=partialRectangle;connectable=0;fillColor=none;top=0;left=0;bottom=0;right=0;fontStyle=1;overflow=hidden;whiteSpace=wrap;html=1;" vertex="1" parent="ab3vpEOWy1NpWrEdWXUi-25">
          <mxGeometry width="30" height="30" as="geometry">
            <mxRectangle width="30" height="30" as="alternateBounds" />
          </mxGeometry>
        </mxCell>
        <mxCell id="ab3vpEOWy1NpWrEdWXUi-27" value="mapping_id" style="shape=partialRectangle;connectable=0;fillColor=none;top=0;left=0;bottom=0;right=0;align=left;spacingLeft=6;fontStyle=5;overflow=hidden;whiteSpace=wrap;html=1;" vertex="1" parent="ab3vpEOWy1NpWrEdWXUi-25">
          <mxGeometry x="30" width="170" height="30" as="geometry">
            <mxRectangle width="170" height="30" as="alternateBounds" />
          </mxGeometry>
        </mxCell>
        <mxCell id="ab3vpEOWy1NpWrEdWXUi-28" value="" style="shape=tableRow;horizontal=0;startSize=0;swimlaneHead=0;swimlaneBody=0;fillColor=none;collapsible=0;dropTarget=0;points=[[0,0.5],[1,0.5]];portConstraint=eastwest;top=0;left=0;right=0;bottom=0;" vertex="1" parent="ab3vpEOWy1NpWrEdWXUi-24">
          <mxGeometry y="60" width="200" height="30" as="geometry" />
        </mxCell>
        <mxCell id="ab3vpEOWy1NpWrEdWXUi-29" value="FK" style="shape=partialRectangle;connectable=0;fillColor=none;top=0;left=0;bottom=0;right=0;editable=1;overflow=hidden;whiteSpace=wrap;html=1;" vertex="1" parent="ab3vpEOWy1NpWrEdWXUi-28">
          <mxGeometry width="30" height="30" as="geometry">
            <mxRectangle width="30" height="30" as="alternateBounds" />
          </mxGeometry>
        </mxCell>
        <mxCell id="ab3vpEOWy1NpWrEdWXUi-30" value="flight_id(serial/varchar)" style="shape=partialRectangle;connectable=0;fillColor=none;top=0;left=0;bottom=0;right=0;align=left;spacingLeft=6;overflow=hidden;whiteSpace=wrap;html=1;" vertex="1" parent="ab3vpEOWy1NpWrEdWXUi-28">
          <mxGeometry x="30" width="170" height="30" as="geometry">
            <mxRectangle width="170" height="30" as="alternateBounds" />
          </mxGeometry>
        </mxCell>
        <mxCell id="ab3vpEOWy1NpWrEdWXUi-31" value="" style="shape=tableRow;horizontal=0;startSize=0;swimlaneHead=0;swimlaneBody=0;fillColor=none;collapsible=0;dropTarget=0;points=[[0,0.5],[1,0.5]];portConstraint=eastwest;top=0;left=0;right=0;bottom=0;" vertex="1" parent="ab3vpEOWy1NpWrEdWXUi-24">
          <mxGeometry y="90" width="200" height="30" as="geometry" />
        </mxCell>
        <mxCell id="ab3vpEOWy1NpWrEdWXUi-32" value="FK" style="shape=partialRectangle;connectable=0;fillColor=none;top=0;left=0;bottom=0;right=0;editable=1;overflow=hidden;whiteSpace=wrap;html=1;" vertex="1" parent="ab3vpEOWy1NpWrEdWXUi-31">
          <mxGeometry width="30" height="30" as="geometry">
            <mxRectangle width="30" height="30" as="alternateBounds" />
          </mxGeometry>
        </mxCell>
        <mxCell id="ab3vpEOWy1NpWrEdWXUi-33" value="excel_data_id (date)" style="shape=partialRectangle;connectable=0;fillColor=none;top=0;left=0;bottom=0;right=0;align=left;spacingLeft=6;overflow=hidden;whiteSpace=wrap;html=1;" vertex="1" parent="ab3vpEOWy1NpWrEdWXUi-31">
          <mxGeometry x="30" width="170" height="30" as="geometry">
            <mxRectangle width="170" height="30" as="alternateBounds" />
          </mxGeometry>
        </mxCell>
        <mxCell id="ab3vpEOWy1NpWrEdWXUi-34" value="" style="shape=tableRow;horizontal=0;startSize=0;swimlaneHead=0;swimlaneBody=0;fillColor=none;collapsible=0;dropTarget=0;points=[[0,0.5],[1,0.5]];portConstraint=eastwest;top=0;left=0;right=0;bottom=0;" vertex="1" parent="ab3vpEOWy1NpWrEdWXUi-24">
          <mxGeometry y="120" width="200" height="30" as="geometry" />
        </mxCell>
        <mxCell id="ab3vpEOWy1NpWrEdWXUi-35" value="" style="shape=partialRectangle;connectable=0;fillColor=none;top=0;left=0;bottom=0;right=0;editable=1;overflow=hidden;whiteSpace=wrap;html=1;" vertex="1" parent="ab3vpEOWy1NpWrEdWXUi-34">
          <mxGeometry width="30" height="30" as="geometry">
            <mxRectangle width="30" height="30" as="alternateBounds" />
          </mxGeometry>
        </mxCell>
        <mxCell id="ab3vpEOWy1NpWrEdWXUi-36" value="" style="shape=partialRectangle;connectable=0;fillColor=none;top=0;left=0;bottom=0;right=0;align=left;spacingLeft=6;overflow=hidden;whiteSpace=wrap;html=1;" vertex="1" parent="ab3vpEOWy1NpWrEdWXUi-34">
          <mxGeometry x="30" width="170" height="30" as="geometry">
            <mxRectangle width="170" height="30" as="alternateBounds" />
          </mxGeometry>
        </mxCell>
        <mxCell id="ab3vpEOWy1NpWrEdWXUi-38" value="" style="endArrow=ERmany;html=1;rounded=0;entryX=-0.005;entryY=0.067;entryDx=0;entryDy=0;entryPerimeter=0;startArrow=ERone;startFill=0;endFill=0;" edge="1" parent="1" target="ab3vpEOWy1NpWrEdWXUi-31">
          <mxGeometry width="50" height="50" relative="1" as="geometry">
            <mxPoint x="370" y="120" as="sourcePoint" />
            <mxPoint x="420" y="70" as="targetPoint" />
            <Array as="points">
              <mxPoint x="410" y="120" />
              <mxPoint x="410" y="212" />
            </Array>
          </mxGeometry>
        </mxCell>
        <mxCell id="ab3vpEOWy1NpWrEdWXUi-39" value="" style="endArrow=ERoneToMany;html=1;rounded=0;entryX=0;entryY=0.5;entryDx=0;entryDy=0;startArrow=ERone;startFill=0;endFill=0;" edge="1" parent="1" target="IvLmCjMSNPzF_hTHH6rZ-151">
          <mxGeometry width="50" height="50" relative="1" as="geometry">
            <mxPoint x="370" y="80" as="sourcePoint" />
            <mxPoint x="420" y="30" as="targetPoint" />
            <Array as="points">
              <mxPoint x="400" y="80" />
              <mxPoint x="400" y="-148" />
            </Array>
          </mxGeometry>
        </mxCell>
        <mxCell id="ab3vpEOWy1NpWrEdWXUi-44" value="departure_coords(demical)" style="text;whiteSpace=wrap;html=1;" vertex="1" parent="1">
          <mxGeometry x="225" y="178" width="130" height="40" as="geometry" />
        </mxCell>
        <mxCell id="ab3vpEOWy1NpWrEdWXUi-47" value="arrival_coords (demical)" style="text;whiteSpace=wrap;html=1;" vertex="1" parent="1">
          <mxGeometry x="225" y="205" width="110" height="40" as="geometry" />
        </mxCell>
        <mxCell id="ab3vpEOWy1NpWrEdWXUi-48" value="departure_potn (point)" style="text;whiteSpace=wrap;html=1;" vertex="1" parent="1">
          <mxGeometry x="230" y="275" width="120" height="40" as="geometry" />
        </mxCell>
        <mxCell id="ab3vpEOWy1NpWrEdWXUi-49" value="arrival_region_id (INT)" style="text;whiteSpace=wrap;html=1;" vertex="1" parent="1">
          <mxGeometry x="225" y="320" width="120" height="40" as="geometry" />
        </mxCell>
        <mxCell id="ab3vpEOWy1NpWrEdWXUi-51" value="" style="endArrow=ERoneToMany;html=1;rounded=0;entryX=0;entryY=0.233;entryDx=0;entryDy=0;exitX=1;exitY=0.5;exitDx=0;exitDy=0;entryPerimeter=0;startArrow=ERone;startFill=0;endFill=0;" edge="1" parent="1" source="IvLmCjMSNPzF_hTHH6rZ-46" target="ab3vpEOWy1NpWrEdWXUi-40">
          <mxGeometry width="50" height="50" relative="1" as="geometry">
            <mxPoint x="90" y="150" as="sourcePoint" />
            <mxPoint x="140" y="100" as="targetPoint" />
          </mxGeometry>
        </mxCell>
        <mxCell id="ab3vpEOWy1NpWrEdWXUi-59" value="processing_status(varchar 50)" style="text;html=1;align=center;verticalAlign=middle;resizable=0;points=[];autosize=1;strokeColor=none;fillColor=none;" vertex="1" parent="1">
          <mxGeometry x="810" y="-92" width="180" height="30" as="geometry" />
        </mxCell>
        <mxCell id="ab3vpEOWy1NpWrEdWXUi-60" value="processing_row(int)" style="text;html=1;align=center;verticalAlign=middle;resizable=0;points=[];autosize=1;strokeColor=none;fillColor=none;" vertex="1" parent="1">
          <mxGeometry x="810" y="-60" width="130" height="30" as="geometry" />
        </mxCell>
        <mxCell id="ab3vpEOWy1NpWrEdWXUi-61" value="validation_errors(text)" style="text;html=1;align=center;verticalAlign=middle;resizable=0;points=[];autosize=1;strokeColor=none;fillColor=none;" vertex="1" parent="1">
          <mxGeometry x="810" y="-22" width="140" height="30" as="geometry" />
        </mxCell>
        <mxCell id="ab3vpEOWy1NpWrEdWXUi-62" value="validation_status(doolean)" style="text;html=1;align=center;verticalAlign=middle;resizable=0;points=[];autosize=1;strokeColor=none;fillColor=none;" vertex="1" parent="1">
          <mxGeometry x="815" y="8" width="160" height="30" as="geometry" />
        </mxCell>
        <mxCell id="ab3vpEOWy1NpWrEdWXUi-63" value="file_hash(varchar 2500" style="text;html=1;align=center;verticalAlign=middle;resizable=0;points=[];autosize=1;strokeColor=none;fillColor=none;" vertex="1" parent="1">
          <mxGeometry x="810" y="40" width="150" height="30" as="geometry" />
        </mxCell>
        <mxCell id="ab3vpEOWy1NpWrEdWXUi-64" value="file_version(VARCHAR50)" style="text;html=1;align=center;verticalAlign=middle;resizable=0;points=[];autosize=1;strokeColor=none;fillColor=none;" vertex="1" parent="1">
          <mxGeometry x="820" y="77" width="160" height="30" as="geometry" />
        </mxCell>
        <mxCell id="ab3vpEOWy1NpWrEdWXUi-65" value="" style="endArrow=none;html=1;rounded=0;entryX=0.006;entryY=0.133;entryDx=0;entryDy=0;entryPerimeter=0;" edge="1" parent="1" target="ab3vpEOWy1NpWrEdWXUi-59">
          <mxGeometry width="50" height="50" relative="1" as="geometry">
            <mxPoint x="810" y="150" as="sourcePoint" />
            <mxPoint x="730" as="targetPoint" />
          </mxGeometry>
        </mxCell>
        <mxCell id="ab3vpEOWy1NpWrEdWXUi-67" value="" style="endArrow=ERone;html=1;rounded=0;exitX=0.25;exitY=0;exitDx=0;exitDy=0;startArrow=ERoneToMany;startFill=0;endFill=0;" edge="1" parent="1" source="IvLmCjMSNPzF_hTHH6rZ-166">
          <mxGeometry width="50" height="50" relative="1" as="geometry">
            <mxPoint x="850" y="200" as="sourcePoint" />
            <mxPoint x="860" y="150" as="targetPoint" />
          </mxGeometry>
        </mxCell>
        <mxCell id="ab3vpEOWy1NpWrEdWXUi-68" value="" style="endArrow=ERone;html=1;rounded=0;entryX=0;entryY=0.5;entryDx=0;entryDy=0;startArrow=ERoneToMany;startFill=0;endFill=0;" edge="1" parent="1" target="IvLmCjMSNPzF_hTHH6rZ-167">
          <mxGeometry width="50" height="50" relative="1" as="geometry">
            <mxPoint x="630" y="230" as="sourcePoint" />
            <mxPoint x="680" y="180" as="targetPoint" />
            <Array as="points">
              <mxPoint x="730" y="230" />
              <mxPoint x="730" y="297" />
            </Array>
          </mxGeometry>
        </mxCell>
        <mxCell id="ab3vpEOWy1NpWrEdWXUi-70" value="date_report (date)" style="text;html=1;align=center;verticalAlign=middle;resizable=0;points=[];autosize=1;strokeColor=none;fillColor=none;" vertex="1" parent="1">
          <mxGeometry x="-400" y="80" width="120" height="30" as="geometry" />
        </mxCell>
        <mxCell id="ab3vpEOWy1NpWrEdWXUi-71" value="user_id (INT)" style="text;html=1;align=center;verticalAlign=middle;resizable=0;points=[];autosize=1;strokeColor=none;fillColor=none;" vertex="1" parent="1">
          <mxGeometry x="-405" y="108" width="90" height="30" as="geometry" />
        </mxCell>
        <mxCell id="ab3vpEOWy1NpWrEdWXUi-72" value="FK" style="text;html=1;align=center;verticalAlign=middle;resizable=0;points=[];autosize=1;strokeColor=none;fillColor=none;" vertex="1" parent="1">
          <mxGeometry x="-430" y="112" width="40" height="30" as="geometry" />
        </mxCell>
        <mxCell id="ab3vpEOWy1NpWrEdWXUi-73" value="" style="endArrow=none;html=1;rounded=0;exitX=0.9;exitY=0.933;exitDx=0;exitDy=0;exitPerimeter=0;entryX=0.155;entryY=0;entryDx=0;entryDy=0;entryPerimeter=0;" edge="1" parent="1" source="ab3vpEOWy1NpWrEdWXUi-72" target="IvLmCjMSNPzF_hTHH6rZ-203">
          <mxGeometry width="50" height="50" relative="1" as="geometry">
            <mxPoint x="-440" y="130" as="sourcePoint" />
            <mxPoint x="-390" y="80" as="targetPoint" />
          </mxGeometry>
        </mxCell>
        <mxCell id="ab3vpEOWy1NpWrEdWXUi-74" value="FK" style="text;html=1;align=center;verticalAlign=middle;resizable=0;points=[];autosize=1;strokeColor=none;fillColor=none;" vertex="1" parent="1">
          <mxGeometry x="-100" y="188" width="40" height="30" as="geometry" />
        </mxCell>
        <mxCell id="ab3vpEOWy1NpWrEdWXUi-75" value="file_id (int)" style="text;html=1;align=center;verticalAlign=middle;resizable=0;points=[];autosize=1;strokeColor=none;fillColor=none;" vertex="1" parent="1">
          <mxGeometry x="860" y="430" width="80" height="30" as="geometry" />
        </mxCell>
        <mxCell id="ab3vpEOWy1NpWrEdWXUi-81" value="FK" style="text;html=1;align=center;verticalAlign=middle;resizable=0;points=[];autosize=1;strokeColor=none;fillColor=none;" vertex="1" parent="1">
          <mxGeometry x="810" y="428" width="40" height="30" as="geometry" />
        </mxCell>
        <mxCell id="ab3vpEOWy1NpWrEdWXUi-82" value="arrval_point (point)" style="text;html=1;align=center;verticalAlign=middle;resizable=0;points=[];autosize=1;strokeColor=none;fillColor=none;" vertex="1" parent="1">
          <mxGeometry x="220" y="245" width="120" height="30" as="geometry" />
        </mxCell>
        <mxCell id="ab3vpEOWy1NpWrEdWXUi-83" value="mapping_id( int)" style="text;html=1;align=center;verticalAlign=middle;resizable=0;points=[];autosize=1;strokeColor=none;fillColor=none;" vertex="1" parent="1">
          <mxGeometry x="205" y="358" width="110" height="30" as="geometry" />
        </mxCell>
        <mxCell id="ab3vpEOWy1NpWrEdWXUi-84" value="FK" style="text;html=1;align=center;verticalAlign=middle;resizable=0;points=[];autosize=1;strokeColor=none;fillColor=none;" vertex="1" parent="1">
          <mxGeometry x="180" y="348" width="40" height="30" as="geometry" />
        </mxCell>
      </root>
    </mxGraphModel>
  </diagram>
</mxfile>
